<svg width="304" height="304" fill="none" xmlns="http://www.w3.org/2000/svg"><path fill-rule="evenodd" clip-rule="evenodd" d="M152.5 1.072l107.312 44.043L304 152.075l-44.188 106.961L152.5 303.079 45.187 259.036 1 152.075l44.188-106.96L152.5 1.072z" fill="#161829"/><path fill-rule="evenodd" clip-rule="evenodd" d="M152.5 1.072l107.313 44.043L304 152.075l-44.187 106.961L152.5 303.079 45.187 259.036 1 152.075l44.188-106.96L152.5 1.072z" fill="url(#paint0_linear)" fill-opacity=".15"/><path fill-rule="evenodd" clip-rule="evenodd" d="M259.812 45.115L152.5 1.072 45.187 45.115 1 152.075l44.188 106.961L152.5 303.079l107.312-44.043L304 152.075l-44.188-106.96zM28.775 152.075l35.35-88.085L152.5 27.498l88.375 36.492 36.612 88.085-36.612 88.086-88.375 36.492-88.375-36.492-35.35-88.086z" fill="url(#paint1_linear)"/><path fill-rule="evenodd" clip-rule="evenodd" d="M152.5 303.079V276.58l-88.375-36.419-35.633-88.086L64.125 63.99 152.5 27.498V1.072L45.187 45.115 1 152.075l44.188 106.961L152.5 303.079z" fill="url(#paint2_linear)"/><path fill-rule="evenodd" clip-rule="evenodd" d="M152.5 1.072l107.313 44.043L304 152.075l-44.187 106.961L152.5 303.079V276.58l88.326-36.267 36.852-88.238-36.803-88.085L152.5 27.498V1.072z" fill="url(#paint3_linear)"/><defs><linearGradient id="paint0_linear" x1="152.5" y1="1.072" x2="152.5" y2="303.079" gradientUnits="userSpaceOnUse"><stop stop-color="#EE4525"/><stop offset="1" stop-color="#EB2F2F"/></linearGradient><linearGradient id="paint1_linear" x1="245.435" y1="65.544" x2="54.31" y2="244.671" gradientUnits="userSpaceOnUse"><stop stop-color="#FF00C0"/><stop offset=".266" stop-color="#F02"/><stop offset=".628" stop-color="#FBB800"/><stop offset="1" stop-color="#009FE3"/></linearGradient><linearGradient id="paint2_linear" x1="76.75" y1="1.072" x2="76.75" y2="298.033" gradientUnits="userSpaceOnUse"><stop stop-color="#fff" stop-opacity=".01"/><stop offset="1" stop-color="#fff" stop-opacity=".3"/></linearGradient><linearGradient id="paint3_linear" x1="228.25" y1="303.079" x2="228.25" y2="1.072" gradientUnits="userSpaceOnUse"><stop stop-opacity=".01"/><stop offset="1" stop-opacity=".3"/></linearGradient></defs></svg>